<svg xmlns="http://www.w3.org/2000/svg" viewBox="0 0 16 16">
  <!-- Monitor body -->
  <rect x="0.8" y="1" width="14.4" height="10.2" rx="1.4" fill="#343E50"/>
  <!-- Inner bezel -->
  <rect x="1.4" y="1.5" width="13.2" height="9.2" rx="1" fill="#2A3342"/>
  <!-- Screen face -->
  <rect x="2" y="2" width="12" height="8" rx="0.7" fill="#F5F2ED"/>
  <!-- Stand neck -->
  <rect x="6.9" y="11.2" width="2.2" height="2.2" fill="#343E50"/>
  <!-- Stand base -->
  <rect x="4.2" y="13.3" width="7.6" height="1.3" rx="0.65" fill="#343E50"/>

  <!-- POT drop shadow -->
  <path d="M8 3.5 C7.6 3.5 7.3 3.65 7.2 3.85 L6.9 4.1 C6.65 4.1 6.5 4.4 6.5 4.85 C6.5 5.7 6.0 6.5 5.9 7.4 C5.8 8.0 5.9 8.4 6.1 8.7 C6.4 9.1 7.1 9.3 8.0 9.3 C8.9 9.3 9.6 9.1 9.9 8.7 C10.1 8.4 10.2 8.0 10.1 7.4 C10.0 6.5 9.5 5.7 9.5 4.85 C9.5 4.4 9.35 4.1 9.1 4.1 L8.8 3.85 C8.7 3.65 8.4 3.5 8 3.5 Z"
        fill="#7A3E20" opacity="0.3" transform="translate(0.18 0.12)"/>

  <!-- POT main body -->
  <path d="M8 3.5 C7.6 3.5 7.3 3.65 7.2 3.85 L6.9 4.1 C6.65 4.1 6.5 4.4 6.5 4.85 C6.5 5.7 6.0 6.5 5.9 7.4 C5.8 8.0 5.9 8.4 6.1 8.7 C6.4 9.1 7.1 9.3 8.0 9.3 C8.9 9.3 9.6 9.1 9.9 8.7 C10.1 8.4 10.2 8.0 10.1 7.4 C10.0 6.5 9.5 5.7 9.5 4.85 C9.5 4.4 9.35 4.1 9.1 4.1 L8.8 3.85 C8.7 3.65 8.4 3.5 8 3.5 Z"
        fill="#BF6B45"/>

  <!-- POT left highlight -->
  <path d="M7.8 3.56 C7.5 3.6 7.28 3.72 7.2 3.85 L6.9 4.1 C6.68 4.12 6.55 4.38 6.55 4.82 C6.55 5.6 6.1 6.35 6.0 7.2 C5.95 7.65 6.02 8.02 6.18 8.32 C6.45 8.18 6.65 7.85 6.72 7.3 C6.82 6.5 7.25 5.75 7.25 4.95 C7.25 4.5 7.38 4.22 7.58 4.08 L7.8 3.88 Z"
        fill="#D4845A" opacity="0.7"/>

  <!-- Rim opening -->
  <ellipse cx="8" cy="3.88" rx="0.82" ry="0.2" fill="#9E5030"/>
  <ellipse cx="8" cy="3.82" rx="0.76" ry="0.16" fill="#C87050"/>

  <!-- Foot ring -->
  <ellipse cx="8" cy="9.2" rx="0.88" ry="0.15" fill="#9E5030" opacity="0.55"/>

  <!-- Gold glaze accent dot -->
  <circle cx="9.1" cy="6.9" r="0.26" fill="#D4A820"/>
  <circle cx="9.1" cy="6.9" r="0.13" fill="#F0CC50" opacity="0.75"/>
</svg>
